<svg width="40" height="40" viewBox="0 0 40 40" fill="none" xmlns="http://www.w3.org/2000/svg">
<path d="M19.9996 1.59998C9.84868 1.59998 1.59961 9.84905 1.59961 20C1.59961 30.1509 9.84868 38.4 19.9996 38.4C30.1505 38.4 38.3996 30.1509 38.3996 20C38.3996 9.84905 30.1505 1.59998 19.9996 1.59998ZM19.9996 3.19998C29.2855 3.19998 36.7996 10.7141 36.7996 20C36.7996 20.0571 36.7955 20.1133 36.7949 20.1703C36.2832 20.1231 35.692 20.0782 34.9402 20.0515C33.8773 20.0138 32.5374 20.0248 31.0184 20.1C31.0747 19.7077 31.1142 19.3099 31.1152 18.9015C31.1927 17.4034 30.6896 16.0019 29.8715 14.764C30.0691 14.0811 30.301 13.2122 30.359 12.2265C30.4251 11.1031 30.3281 9.85739 29.4262 9.01561L29.1949 8.79998H28.8793C26.7328 8.79998 25.2636 9.69855 24.3652 10.4109C23.068 9.9088 21.6094 9.59998 19.9996 9.59998C18.3807 9.59998 16.908 9.91312 15.5574 10.414C14.6595 9.70133 13.189 8.79998 11.0402 8.79998H10.7262L10.4949 9.01405C9.61638 9.82984 9.53544 11.0414 9.59024 12.1594C9.63857 13.1452 9.857 14.0417 10.0512 14.7578C9.21921 16.0199 8.71993 17.4576 8.71993 18.8797C8.71993 19.289 8.75799 19.688 8.81368 20.0812C7.36907 20.0142 6.0813 20.0013 5.05899 20.0375C4.30723 20.0641 3.71597 20.1086 3.20431 20.1562C3.20383 20.104 3.19962 20.0524 3.19962 20C3.19962 10.7141 10.7137 3.19998 19.9996 3.19998ZM11.5168 10.5047C13.1309 10.6576 14.3452 11.3784 14.9074 11.8781L15.2824 12.2094L15.7449 12.0203C17.0101 11.4993 18.4212 11.2 19.9996 11.2C21.578 11.2 22.9895 11.5008 24.159 12.0125L24.6277 12.2187L25.0106 11.8781C25.573 11.3782 26.7894 10.6572 28.4043 10.5047C28.619 10.8606 28.8056 11.3669 28.7606 12.1328C28.7066 13.0494 28.4615 14.0477 28.2762 14.6406L28.1559 15.0265L28.3949 15.3531C29.1865 16.4325 29.5901 17.6007 29.5215 18.8359L29.5199 18.8578V18.8797C29.5199 20.876 28.801 22.4738 27.2699 23.6578C25.7389 24.8417 23.3217 25.6 19.9199 25.6C16.5181 25.6 14.0995 24.8417 12.5684 23.6578C11.0373 22.4738 10.3199 20.876 10.3199 18.8797C10.3199 17.7079 10.7431 16.4189 11.5246 15.3531L11.759 15.0344L11.6465 14.6547C11.4611 14.0244 11.2339 13.0033 11.1887 12.0812C11.1511 11.3143 11.3326 10.8296 11.5168 10.5047ZM7.10743 20.8172C7.67278 20.8244 8.32078 20.8549 8.96993 20.8875C9.03195 21.1369 9.10267 21.3823 9.18868 21.6218C6.54279 21.6776 4.5634 21.9437 3.34337 22.1718C3.29179 21.7716 3.2507 21.368 3.22775 20.9594C4.12939 20.8738 5.40041 20.7954 7.10743 20.8172ZM32.8918 20.8297C34.5976 20.808 35.8682 20.8865 36.7699 20.9718C36.747 21.3746 36.7066 21.7725 36.6559 22.1672C35.3922 21.9353 33.3593 21.6693 30.6449 21.6265C30.7292 21.3917 30.7993 21.1506 30.8605 20.9062C31.5766 20.8678 32.2753 20.8375 32.8918 20.8297ZM9.5293 22.4156C10.0067 23.3722 10.6888 24.2264 11.5902 24.9234C12.8227 25.8764 14.4249 26.5422 16.3809 26.8984C16.125 27.1613 15.8922 27.4501 15.6855 27.7547L15.6371 27.7125C15.6415 27.7074 15.2394 27.9087 14.6387 27.9625C14.0379 28.0163 13.2969 28 12.6402 28C11.6602 28 11.2286 27.537 10.5387 26.6937C10.1566 26.1788 9.69088 25.7618 9.23867 25.4453C8.77562 25.1212 8.38061 24.8924 7.89179 24.8109L7.82617 24.8H7.75899C7.38565 24.8 7.02439 24.827 6.68711 25.2125C6.51847 25.4052 6.40223 25.762 6.47774 26.064C6.55324 26.3661 6.7443 26.5516 6.91524 26.6656C8.00862 27.3945 8.20185 28.8372 8.88711 30.1203C9.52705 31.3954 10.9081 32 12.3199 32H14.3996V35.8422C8.77387 33.8564 4.53136 28.9637 3.46524 22.9625C4.68996 22.7318 6.74084 22.4545 9.5293 22.4156ZM30.3059 22.4218C33.156 22.4462 35.2645 22.7232 36.5355 22.9578C35.4709 28.9612 31.2269 33.8559 25.5996 35.8422V31.6797C25.5996 30.412 25.1833 29.0141 24.459 27.8484C24.2391 27.4945 23.9804 27.1598 23.6918 26.8594C25.544 26.4934 27.0655 25.839 28.2496 24.9234C29.1491 24.2279 29.8297 23.3763 30.3059 22.4218ZM18.959 27.2797H21.1996C21.8499 27.2797 22.5439 27.7979 23.0996 28.6922C23.6553 29.5864 23.9996 30.7873 23.9996 31.6797V36.3187C22.7175 36.6314 21.3786 36.8 19.9996 36.8C18.6206 36.8 17.2817 36.6314 15.9996 36.3187V31.6797C15.9996 30.8071 16.3739 29.609 16.9668 28.7109C17.5597 27.8128 18.3087 27.2797 18.959 27.2797ZM9.84648 28.225C10.5391 28.9434 11.3776 29.6 12.6402 29.6C13.2636 29.6 14.0416 29.6224 14.7809 29.5562C14.7835 29.556 14.786 29.5549 14.7887 29.5547C14.6913 29.8347 14.6186 30.1164 14.5574 30.4H12.3199C11.3333 30.4 10.6362 30.0435 10.3152 29.4015L10.309 29.3906L10.3043 29.3812C10.1728 29.1369 10.0001 28.6484 9.84648 28.225Z" fill="white"/>
</svg>
