<svg width="38" height="38" viewBox="0 0 38 38" fill="none" xmlns="http://www.w3.org/2000/svg">
<path d="M18.9996 0.600098C8.84868 0.600098 0.599609 8.84917 0.599609 19.0001C0.599609 29.151 8.84868 37.4001 18.9996 37.4001C29.1505 37.4001 37.3996 29.151 37.3996 19.0001C37.3996 8.84917 29.1505 0.600098 18.9996 0.600098ZM18.9996 2.2001C28.2855 2.2001 35.7996 9.71423 35.7996 19.0001C35.7996 19.0572 35.7955 19.1135 35.7949 19.1704C35.2832 19.1232 34.692 19.0783 33.9402 19.0517C32.8773 19.014 31.5374 19.0249 30.0184 19.1001C30.0747 18.7078 30.1142 18.31 30.1152 17.9017C30.1927 16.4036 29.6896 15.0021 28.8715 13.7642C29.0691 13.0812 29.301 12.2123 29.359 11.2267C29.4251 10.1032 29.3281 8.85751 28.4262 8.01573L28.1949 7.80011H27.8793C25.7328 7.80011 24.2636 8.69867 23.3652 9.41104C22.068 8.90892 20.6094 8.60011 18.9996 8.60011C17.3807 8.60011 15.908 8.91324 14.5574 9.41417C13.6595 8.70146 12.189 7.80011 10.0402 7.80011H9.72618L9.49493 8.01417C8.61638 8.82996 8.53544 10.0415 8.59024 11.1595C8.63857 12.1453 8.857 13.0418 9.05118 13.7579C8.21921 15.02 7.71993 16.4577 7.71993 17.8798C7.71993 18.2891 7.75799 18.6882 7.81368 19.0814C6.36907 19.0144 5.0813 19.0014 4.05899 19.0376C3.30723 19.0642 2.71597 19.1087 2.20431 19.1564C2.20383 19.1041 2.19962 19.0525 2.19962 19.0001C2.19962 9.71424 9.71374 2.2001 18.9996 2.2001ZM10.5168 9.50479C12.1309 9.65773 13.3452 10.3785 13.9074 10.8782L14.2824 11.2095L14.7449 11.0204C16.0101 10.4995 17.4212 10.2001 18.9996 10.2001C20.578 10.2001 21.9895 10.501 23.159 11.0126L23.6277 11.2189L24.0106 10.8782C24.573 10.3783 25.7894 9.65735 27.4043 9.50479C27.619 9.86077 27.8056 10.367 27.7606 11.1329C27.7066 12.0495 27.4615 13.0478 27.2762 13.6407L27.1559 14.0267L27.3949 14.3532C28.1865 15.4326 28.5901 16.6008 28.5215 17.836L28.5199 17.8579V17.8798C28.5199 19.8761 27.801 21.474 26.2699 22.6579C24.7389 23.8419 22.3217 24.6001 18.9199 24.6001C15.5181 24.6001 13.0995 23.8419 11.5684 22.6579C10.0373 21.474 9.31993 19.8762 9.31993 17.8798C9.31993 16.708 9.74306 15.419 10.5246 14.3532L10.759 14.0345L10.6465 13.6548C10.4611 13.0245 10.2339 12.0034 10.1887 11.0813C10.1511 10.3144 10.3326 9.82972 10.5168 9.50479ZM6.10743 19.8173C6.67278 19.8245 7.32078 19.855 7.96993 19.8876C8.03195 20.137 8.10267 20.3824 8.18868 20.622C5.54279 20.6778 3.5634 20.9438 2.34337 21.172C2.29179 20.7717 2.2507 20.3681 2.22775 19.9595C3.12939 19.8739 4.40041 19.7955 6.10743 19.8173ZM31.8918 19.8298C33.5976 19.8081 34.8682 19.8866 35.7699 19.972C35.747 20.3748 35.7066 20.7726 35.6559 21.1673C34.3922 20.9355 32.3593 20.6694 29.6449 20.6267C29.7292 20.3918 29.7993 20.1507 29.8605 19.9063C30.5766 19.868 31.2753 19.8376 31.8918 19.8298ZM8.5293 21.4157C9.00669 22.3724 9.68883 23.2265 10.5902 23.9235C11.8227 24.8765 13.4249 25.5424 15.3809 25.8985C15.125 26.1615 14.8922 26.4502 14.6855 26.7548L14.6371 26.7126C14.6415 26.7076 14.2394 26.9088 13.6387 26.9626C13.0379 27.0164 12.2969 27.0001 11.6402 27.0001C10.6602 27.0001 10.2286 26.5371 9.53866 25.6939C9.15662 25.179 8.69088 24.762 8.23867 24.4454C7.77562 24.1213 7.38061 23.8925 6.89179 23.811L6.82617 23.8001H6.75899C6.38565 23.8001 6.02439 23.8271 5.68711 24.2126C5.51847 24.4053 5.40223 24.7622 5.47774 25.0642C5.55324 25.3662 5.7443 25.5518 5.91524 25.6657C7.00862 26.3946 7.20185 27.8373 7.88711 29.1204C8.52705 30.3956 9.90815 31.0001 11.3199 31.0001H13.3996V34.8423C7.77387 32.8565 3.53136 27.9638 2.46524 21.9626C3.68996 21.7319 5.74084 21.4546 8.5293 21.4157ZM29.3059 21.422C32.156 21.4464 34.2645 21.7233 35.5355 21.9579C34.4709 27.9613 30.2269 32.856 24.5996 34.8423V30.6798C24.5996 29.4121 24.1833 28.0143 23.459 26.8485C23.2391 26.4946 22.9804 26.1599 22.6918 25.8595C24.544 25.4936 26.0655 24.8392 27.2496 23.9235C28.1491 23.228 28.8297 22.3764 29.3059 21.422ZM17.959 26.2798H20.1996C20.8499 26.2798 21.5439 26.798 22.0996 27.6923C22.6553 28.5866 22.9996 29.7874 22.9996 30.6798V35.3189C21.7175 35.6315 20.3786 35.8001 18.9996 35.8001C17.6206 35.8001 16.2817 35.6315 14.9996 35.3189V30.6798C14.9996 29.8072 15.3739 28.6092 15.9668 27.711C16.5597 26.8129 17.3087 26.2798 17.959 26.2798ZM8.84648 27.2251C9.5391 27.9435 10.3776 28.6001 11.6402 28.6001C12.2636 28.6001 13.0416 28.6226 13.7809 28.5563C13.7835 28.5561 13.786 28.555 13.7887 28.5548C13.6913 28.8348 13.6186 29.1165 13.5574 29.4001H11.3199C10.3333 29.4001 9.63623 29.0436 9.31524 28.4017L9.30899 28.3907L9.30431 28.3813C9.17279 28.137 9.00012 27.6486 8.84648 27.2251Z" fill="black"/>
</svg>
