<svg width="40" height="40" viewBox="0 0 40 40" fill="none" xmlns="http://www.w3.org/2000/svg">
<path d="M28.347 34.9917L11.6804 35.0075C8.01371 35.0109 5.01121 32.0142 5.00705 28.3475L4.99121 11.6809C4.98788 8.0142 7.98455 5.0117 11.6512 5.00754L28.3179 4.9917C31.9845 4.98837 34.987 7.98504 34.9912 11.6517L35.007 28.3184C35.0112 31.9859 32.0137 34.9884 28.347 34.9917Z" fill="url(#paint0_radial_2017_250)"/>
<path d="M28.347 34.9917L11.6804 35.0075C8.01371 35.0109 5.01121 32.0142 5.00705 28.3475L4.99121 11.6809C4.98788 8.0142 7.98455 5.0117 11.6512 5.00754L28.3179 4.9917C31.9845 4.98837 34.987 7.98504 34.9912 11.6517L35.007 28.3184C35.0112 31.9859 32.0137 34.9884 28.347 34.9917Z" fill="url(#paint1_radial_2017_250)"/>
<path d="M20.0003 25.8332C16.7845 25.8332 14.167 23.2165 14.167 19.9998C14.167 16.7832 16.7845 14.1665 20.0003 14.1665C23.2162 14.1665 25.8337 16.7832 25.8337 19.9998C25.8337 23.2165 23.2162 25.8332 20.0003 25.8332ZM20.0003 15.8332C17.7028 15.8332 15.8337 17.7023 15.8337 19.9998C15.8337 22.2973 17.7028 24.1665 20.0003 24.1665C22.2978 24.1665 24.167 22.2973 24.167 19.9998C24.167 17.7023 22.2978 15.8332 20.0003 15.8332Z" fill="white"/>
<path d="M26.25 15C26.9404 15 27.5 14.4404 27.5 13.75C27.5 13.0596 26.9404 12.5 26.25 12.5C25.5596 12.5 25 13.0596 25 13.75C25 14.4404 25.5596 15 26.25 15Z" fill="white"/>
<path d="M25.0003 30.8332H15.0003C11.7845 30.8332 9.16699 28.2165 9.16699 24.9998V14.9998C9.16699 11.7832 11.7845 9.1665 15.0003 9.1665H25.0003C28.2162 9.1665 30.8337 11.7832 30.8337 14.9998V24.9998C30.8337 28.2165 28.2162 30.8332 25.0003 30.8332ZM15.0003 10.8332C12.7028 10.8332 10.8337 12.7023 10.8337 14.9998V24.9998C10.8337 27.2973 12.7028 29.1665 15.0003 29.1665H25.0003C27.2978 29.1665 29.167 27.2973 29.167 24.9998V14.9998C29.167 12.7023 27.2978 10.8332 25.0003 10.8332H15.0003Z" fill="white"/>
<defs>
<radialGradient id="paint0_radial_2017_250" cx="0" cy="0" r="1" gradientUnits="userSpaceOnUse" gradientTransform="translate(16.1495 35.0292) scale(37.4158 37.4158)">
<stop stop-color="#FFDD55"/>
<stop offset="0.328" stop-color="#FF543F"/>
<stop offset="0.348" stop-color="#FC5245"/>
<stop offset="0.504" stop-color="#E64771"/>
<stop offset="0.643" stop-color="#D53E91"/>
<stop offset="0.761" stop-color="#CC39A4"/>
<stop offset="0.841" stop-color="#C837AB"/>
</radialGradient>
<radialGradient id="paint1_radial_2017_250" cx="0" cy="0" r="1" gradientUnits="userSpaceOnUse" gradientTransform="translate(9.82121 4.61695) scale(24.8442 16.5537)">
<stop stop-color="#4168C9"/>
<stop offset="0.999" stop-color="#4168C9" stop-opacity="0"/>
</radialGradient>
</defs>
</svg>
