<svg width="38" height="38" viewBox="0 0 38 38" fill="none" xmlns="http://www.w3.org/2000/svg">
<path d="M33.25 29.2917C33.25 31.4783 31.4783 33.25 29.2917 33.25H8.70833C6.52254 33.25 4.75 31.4783 4.75 29.2917V8.70833C4.75 6.52175 6.52254 4.75 8.70833 4.75H29.2917C31.4783 4.75 33.25 6.52175 33.25 8.70833V29.2917Z" fill="#0078D4"/>
<path opacity="0.05" d="M23.7497 29.2918V21.2968C23.7497 19.9597 23.1013 19.1609 22.0143 19.1609C21.3691 19.1609 20.8949 19.5242 20.606 20.2407C20.5925 20.2914 20.5735 20.498 20.5814 21.1226L20.583 29.2918H15.0413V14.2502H20.583V15.0901C21.3921 14.532 22.384 14.2502 23.5423 14.2502C27.142 14.2502 29.2905 16.6988 29.2905 20.8004L29.2913 29.2918H23.7497ZM8.70801 29.2918V14.2502H11.4448C9.85909 14.2502 8.70801 13.0848 8.70801 11.4785C8.70801 9.87383 9.87809 8.7085 11.4899 8.7085C13.0828 8.7085 14.2172 9.84137 14.2497 11.4627C14.2497 13.0809 13.0788 14.2502 11.467 14.2502H14.2497V29.2918H8.70801Z" fill="black"/>
<path opacity="0.07" d="M24.1462 28.8957V21.2965C24.1462 19.7345 23.33 18.7647 22.015 18.7647C20.9898 18.7647 20.4831 19.4867 20.2393 20.0923C20.1744 20.2499 20.1831 20.8753 20.1862 21.1421L20.1878 28.8957H15.4378V14.6457H20.1878V15.9424C20.8172 15.2909 21.8305 14.6457 23.5429 14.6457C26.894 14.6457 28.8954 16.9463 28.8954 20.8001L28.8962 28.8957H24.1462ZM9.10449 28.8957V14.6457H13.8545V28.8957H9.10449ZM11.4455 13.854C10.0893 13.854 9.10449 12.8549 9.10449 11.4782C9.10449 10.1023 10.1083 9.104 11.4906 9.104C12.8554 9.104 13.8268 10.077 13.8545 11.4703C13.8545 12.8549 12.8507 13.854 11.4676 13.854H11.4455Z" fill="black"/>
<path d="M9.5 15.0417H13.4583V28.5H9.5V15.0417ZM11.4673 13.4583H11.4451C10.264 13.4583 9.5 12.578 9.5 11.4784C9.5 10.355 10.2877 9.5 11.4902 9.5C12.6944 9.5 13.4362 10.355 13.4583 11.4784C13.4583 12.5772 12.6944 13.4583 11.4673 13.4583ZM28.5 28.5H24.5417V21.2966C24.5417 19.5565 23.5719 18.369 22.0147 18.369C20.8264 18.369 20.1835 19.1702 19.8716 19.9445C19.7576 20.2215 19.7917 20.9879 19.7917 21.375V28.5H15.8333V15.0417H19.7917V17.1127C20.3625 16.2292 21.2563 15.0417 23.5426 15.0417C26.3752 15.0417 28.4992 16.8229 28.4992 20.8003L28.5 28.5Z" fill="white"/>
</svg>
